<svg width="38" height="38" viewBox="0 0 38 38" fill="none" xmlns="http://www.w3.org/2000/svg">
<circle cx="19" cy="19" r="19" fill="#FF5F72"/>
<circle cx="19" cy="19" r="17" fill="white"/>
<g clip-path="url(#clip0)">
<path d="M27.1191 9.92575C27.0754 9.88744 27.0241 9.85889 26.9685 9.84201C26.913 9.82513 26.8545 9.82031 26.7969 9.82788L21.8491 10.4877C21.6532 10.5138 21.4734 10.6102 21.3432 10.7588C21.213 10.9075 21.1412 11.0984 21.1411 11.2961V11.615C21.141 11.8128 21.2127 12.0039 21.3429 12.1527C21.4732 12.3016 21.6531 12.398 21.8491 12.4241L26.7969 13.0832C26.8548 13.0909 26.9136 13.0861 26.9695 13.069C27.0254 13.052 27.077 13.0232 27.1207 12.9846C27.1645 12.9459 27.1995 12.8983 27.2232 12.8449C27.247 12.7916 27.259 12.7337 27.2585 12.6753V10.2284C27.2579 10.1709 27.2451 10.1143 27.2211 10.0622C27.1971 10.01 27.1623 9.96353 27.1191 9.92575Z" fill="#FF5F72"/>
<path d="M20.7333 18.4715H18.8981C18.6728 18.4715 18.4902 18.6541 18.4902 18.8793V24.9135C18.4902 25.1388 18.6728 25.3214 18.8981 25.3214H20.7333C20.9585 25.3214 21.1411 25.1388 21.1411 24.9135V18.8793C21.1411 18.6541 20.9585 18.4715 20.7333 18.4715Z" fill="#FF5F72"/>
<path d="M18.9396 13.4054C18.8668 13.3736 18.8048 13.3212 18.7614 13.2547C18.7179 13.1882 18.6948 13.1104 18.6949 13.031V12.6786C18.6949 12.5704 18.7379 12.4667 18.8144 12.3902C18.8909 12.3137 18.9946 12.2708 19.1028 12.2708H19.5106C19.6187 12.2708 19.7225 12.2278 19.799 12.1513C19.8754 12.0748 19.9184 11.9711 19.9184 11.863V11.4551C19.9184 11.347 19.8754 11.2432 19.799 11.1667C19.7225 11.0903 19.6187 11.0473 19.5106 11.0473H16.761C16.7048 11.0472 16.6492 11.0353 16.5979 11.0122L12.7039 9.28222C12.606 9.23873 12.5005 9.21495 12.3934 9.21224C12.2863 9.20952 12.1798 9.22793 12.0798 9.26641C11.8779 9.34411 11.7151 9.49885 11.6273 9.69657C11.5394 9.89429 11.5337 10.1188 11.6115 10.3207C11.6892 10.5226 11.8439 10.6854 12.0416 10.7732L13.2088 11.2912C13.2427 11.3061 13.2719 11.3301 13.2932 11.3604C13.3145 11.3907 13.327 11.4263 13.3295 11.4633C13.3319 11.5002 13.3243 11.5372 13.3075 11.5702C13.2907 11.6032 13.2654 11.6311 13.2341 11.6509C12.4711 12.1266 11.8418 12.7888 11.4057 13.5752C10.9696 14.3615 10.741 15.246 10.7415 16.1452V26.1361C10.7415 26.3525 10.8274 26.5599 10.9804 26.7129C11.1333 26.8658 11.3408 26.9518 11.5571 26.9518C11.7734 26.9518 11.9809 26.8658 12.1339 26.7129C12.2868 26.5599 12.3728 26.3525 12.3728 26.1361V16.1452C12.3732 15.2117 12.7293 14.3134 13.3686 13.6332C14.0079 12.953 14.8824 12.542 15.814 12.4837C15.8697 12.4802 15.9254 12.4882 15.9779 12.5071C16.0303 12.5261 16.0783 12.5556 16.1189 12.5938C16.1595 12.632 16.1918 12.6782 16.2139 12.7294C16.2359 12.7806 16.2472 12.8357 16.2471 12.8915V13.0318C16.2473 13.1112 16.2242 13.189 16.1807 13.2555C16.1372 13.322 16.0753 13.3744 16.0024 13.4062C15.3489 13.6898 14.7925 14.158 14.4013 14.7534C14.0101 15.3487 13.8011 16.0453 13.8002 16.7577V27.5643C13.8002 27.8888 13.9291 28.2 14.1585 28.4295C14.388 28.6589 14.6992 28.7878 15.0237 28.7878H19.9176C20.2421 28.7878 20.5533 28.6589 20.7827 28.4295C21.0122 28.2 21.1411 27.8888 21.1411 27.5643V26.9526C21.1411 26.8444 21.0981 26.7407 21.0216 26.6642C20.9451 26.5877 20.8414 26.5448 20.7332 26.5448H18.2863C18.016 26.5443 17.7569 26.4368 17.5658 26.2457C17.3747 26.0546 17.2671 25.7955 17.2667 25.5252V18.2659C17.2671 17.9956 17.3747 17.7365 17.5658 17.5454C17.7569 17.3543 18.016 17.2467 18.2863 17.2463H20.7332C20.8414 17.2463 20.9451 17.2033 21.0216 17.1268C21.0981 17.0504 21.1411 16.9466 21.1411 16.8385V16.7569C21.1402 16.0446 20.9314 15.3481 20.5403 14.7527C20.1493 14.1574 19.593 13.6891 18.9396 13.4054Z" fill="#FF5F72"/>
</g>
<defs>
<clipPath id="clip0">
<rect x="9.21216" y="9.2121" width="19.5758" height="19.5758" fill="white"/>
</clipPath>
</defs>
</svg>
