<svg width="38" height="38" viewBox="0 0 38 38" fill="none" xmlns="http://www.w3.org/2000/svg">
<circle cx="19" cy="19" r="19" fill="#3A506B"/>
<circle cx="19" cy="19" r="17" fill="white"/>
<g clip-path="url(#clip0)">
<path d="M26.298 13.514C26.3948 13.514 26.4876 13.4755 26.556 13.4071C26.6245 13.3387 26.6629 13.2459 26.6629 13.1491V12.7842C26.6629 12.3971 26.5091 12.0258 26.2354 11.7521C25.9617 11.4784 25.5904 11.3246 25.2033 11.3246H12.7968C12.4096 11.3246 12.0384 11.4784 11.7647 11.7521C11.4909 12.0258 11.3372 12.3971 11.3372 12.7842V13.1491C11.3372 13.2459 11.3756 13.3387 11.444 13.4071C11.5125 13.4755 11.6053 13.514 11.7021 13.514H26.298Z" fill="#3A506B"/>
<path d="M11.7021 14.6086C11.6053 14.6086 11.5125 14.6471 11.444 14.7155C11.3756 14.784 11.3372 14.8768 11.3372 14.9735V16.6265C11.3394 19.0494 11.9829 21.4286 13.2022 23.5223C14.4216 25.6159 16.1734 27.3496 18.2797 28.5471C18.4997 28.671 18.7479 28.7361 19.0004 28.7361C19.2529 28.7361 19.5011 28.671 19.7211 28.5471C21.8271 27.3494 23.5787 25.6157 24.798 23.522C26.0172 21.4284 26.6606 19.0493 26.6629 16.6265V14.9735C26.6629 14.8768 26.6245 14.784 26.556 14.7155C26.4876 14.6471 26.3948 14.6086 26.298 14.6086H11.7021ZM15.0883 18.6386C15.1108 18.5796 15.1509 18.529 15.2031 18.4935C15.2553 18.458 15.3171 18.4394 15.3802 18.4401H17.3777C17.4488 18.4402 17.5184 18.4195 17.5779 18.3806C17.6374 18.3417 17.6842 18.2863 17.7127 18.2211L18.7176 15.8909C18.7414 15.8357 18.7809 15.7886 18.8312 15.7556C18.8814 15.7225 18.9402 15.7049 19.0004 15.7049C19.0606 15.7049 19.1194 15.7225 19.1696 15.7556C19.2199 15.7886 19.2594 15.8357 19.2832 15.8909L20.2881 18.2211C20.3166 18.2863 20.3634 18.3417 20.4229 18.3806C20.4824 18.4195 20.552 18.4402 20.6231 18.4401H22.6242C22.6866 18.4401 22.7476 18.459 22.799 18.4944C22.8504 18.5298 22.8899 18.58 22.9121 18.6383C22.9344 18.6967 22.9383 18.7604 22.9236 18.821C22.9088 18.8817 22.8759 18.9364 22.8293 18.9779L21.1427 20.4813C21.0853 20.5325 21.0455 20.6004 21.029 20.6755C21.0125 20.7506 21.0201 20.829 21.0508 20.8995L22.0375 23.1684C22.0634 23.2276 22.0701 23.2934 22.0565 23.3566C22.0429 23.4198 22.0098 23.477 21.9618 23.5203C21.9138 23.5635 21.8533 23.5905 21.7891 23.5974C21.7249 23.6044 21.6601 23.5909 21.604 23.5589L19.1796 22.1934C19.1249 22.1626 19.0632 22.1464 19.0004 22.1464C18.9376 22.1464 18.8759 22.1626 18.8212 22.1934L16.3968 23.5611C16.3406 23.5927 16.2759 23.6059 16.2118 23.5988C16.1476 23.5917 16.0874 23.5646 16.0395 23.5213C15.9916 23.4781 15.9584 23.4209 15.9448 23.3579C15.9311 23.2948 15.9376 23.2291 15.9633 23.1699L16.95 20.8995C16.9807 20.829 16.9884 20.7506 16.9718 20.6755C16.9553 20.6004 16.9155 20.5325 16.8581 20.4813L15.1715 18.9779C15.1249 18.9365 15.092 18.8818 15.0771 18.8212C15.0623 18.7606 15.0662 18.6969 15.0883 18.6386Z" fill="#3A506B"/>
</g>
<defs>
<clipPath id="clip0">
<rect x="10.2424" y="11.2727" width="17.5152" height="17.5152" fill="white"/>
</clipPath>
</defs>
</svg>
