<svg width="38" height="38" viewBox="0 0 38 38" fill="none" xmlns="http://www.w3.org/2000/svg">
<circle cx="19" cy="19" r="19" fill="#5BC0BE"/>
<circle cx="19" cy="19" r="17" fill="white"/>
<path d="M25.4197 17.3836L19.3341 11.4384C19.2903 11.3955 19.2383 11.3615 19.181 11.3382C19.1237 11.315 19.0623 11.303 19.0002 11.303C18.9382 11.303 18.8768 11.315 18.8195 11.3382C18.7622 11.3615 18.7101 11.3955 18.6663 11.4384L12.5807 17.3836C12.4034 17.5569 12.303 17.7923 12.303 18.0379C12.303 18.5477 12.727 18.9623 13.2485 18.9623H13.8898V23.2045C13.8898 23.4601 14.101 23.6667 14.3625 23.6667H18.0547V20.4312H19.7094V23.6667H23.6379C23.8994 23.6667 24.1107 23.4601 24.1107 23.2045V18.9623H24.7519C25.0031 18.9623 25.2439 18.8655 25.4212 18.6907C25.7891 18.3296 25.7891 17.7447 25.4197 17.3836Z" fill="#5BC0BE"/>
</svg>
