<svg width="24" height="22" viewBox="0 0 24 22" fill="none" xmlns="http://www.w3.org/2000/svg">
<path d="M22.75 10.2509H17.871L16.265 6.05093C16.168 5.79835 15.9916 5.58407 15.7624 5.44027C15.5333 5.29647 15.2636 5.23092 14.994 5.25347C14.7243 5.27601 14.4693 5.38543 14.2672 5.56529C14.065 5.74516 13.9267 5.98575 13.873 6.25093L12.415 13.3669L10.6 1.31393C10.5576 1.03163 10.4199 0.772339 10.2097 0.57917C9.99953 0.386001 9.72956 0.270591 9.44469 0.25213C9.15983 0.233668 8.87722 0.313267 8.64387 0.477692C8.41051 0.642117 8.24046 0.881461 8.162 1.15593L5.548 10.2509H1.25C0.918479 10.2509 0.600537 10.3826 0.366117 10.617C0.131696 10.8515 0 11.1694 0 11.5009C0 11.8325 0.131696 12.1504 0.366117 12.3848C0.600537 12.6192 0.918479 12.7509 1.25 12.7509H6.489C6.76032 12.7509 7.02423 12.6624 7.24076 12.4989C7.45729 12.3355 7.61465 12.1059 7.689 11.8449L8.979 7.35593L10.992 20.6869C11.0357 20.9767 11.1798 21.2418 11.3992 21.4361C11.6185 21.6304 11.8991 21.7415 12.192 21.7499H12.225C12.513 21.7498 12.7921 21.6501 13.0151 21.4679C13.2381 21.2857 13.3914 21.0321 13.449 20.7499L15.458 10.9499L15.84 11.9499C15.9308 12.1856 16.091 12.3883 16.2993 12.5311C16.5076 12.6739 16.7544 12.7502 17.007 12.7499H22.75C23.0815 12.7499 23.3995 12.6182 23.6339 12.3838C23.8683 12.1494 24 11.8315 24 11.4999C24 11.1684 23.8683 10.8505 23.6339 10.616C23.3995 10.3816 23.0815 10.2499 22.75 10.2499V10.2509Z" fill="#3A506B"/>
</svg>
