<svg width="58" height="55" viewBox="0 0 58 55" fill="none" xmlns="http://www.w3.org/2000/svg">
<path d="M11.1331 32.2322C12.4703 34.6844 14.3729 36.7823 16.6831 38.352C18.9933 39.9216 21.6445 40.9178 24.4167 41.2578C27.189 41.5978 30.0023 41.2719 32.6234 40.307C35.2444 39.3422 37.5976 37.7662 39.4877 35.7099C41.3778 33.6536 42.7503 31.1762 43.4914 28.4833C44.2324 25.7904 44.3207 22.9596 43.7488 20.2258C43.1769 17.492 41.9613 14.9339 40.2029 12.7639C38.4446 10.5938 36.1941 8.87438 33.6382 7.74815" stroke="#F9F9F9" stroke-width="10"/>
<path d="M44.162 23.8617C44.162 21.0687 43.496 18.316 42.2192 15.8319C40.9424 13.3478 39.0917 11.204 36.8206 9.57824C34.5495 7.95252 31.9235 6.8918 29.1604 6.48407C26.3973 6.07635 23.5768 6.33338 20.9329 7.23384C18.2891 8.13429 15.898 9.65222 13.9582 11.6617C12.0184 13.6711 10.5856 16.1142 9.77894 18.7882C8.97223 21.4621 8.81477 24.2899 9.31963 27.0369C9.82448 29.7839 10.9771 32.3709 12.6819 34.5833" stroke="#FFC01F" stroke-width="10"/>
</svg>
