<svg width="45" height="45" viewBox="0 0 45 45" fill="none" xmlns="http://www.w3.org/2000/svg">
<circle cx="22.5" cy="22.5" r="22.5" fill="#3A506B"/>
<path d="M14.6873 22.8063C15.9307 22.8063 16.9386 21.7984 16.9386 20.555C16.9386 19.3117 15.9307 18.3037 14.6873 18.3037C13.444 18.3037 12.436 19.3117 12.436 20.555C12.436 21.7984 13.444 22.8063 14.6873 22.8063Z" fill="white"/>
<path d="M14.6875 23.2803C13.745 23.2813 12.8415 23.6561 12.1751 24.3225C11.5086 24.9889 11.1338 25.8925 11.1328 26.835C11.1328 26.8978 11.1578 26.9581 11.2022 27.0025C11.2467 27.047 11.3069 27.0719 11.3698 27.0719H18.0052C18.0681 27.0719 18.1283 27.047 18.1728 27.0025C18.2172 26.9581 18.2422 26.8978 18.2422 26.835C18.2412 25.8925 17.8664 24.9889 17.1999 24.3225C16.5335 23.6561 15.63 23.2813 14.6875 23.2803Z" fill="white"/>
<path d="M21.9998 22.8063C23.2432 22.8063 24.2511 21.7984 24.2511 20.555C24.2511 19.3117 23.2432 18.3037 21.9998 18.3037C20.7565 18.3037 19.7485 19.3117 19.7485 20.555C19.7485 21.7984 20.7565 22.8063 21.9998 22.8063Z" fill="white"/>
<path d="M22 23.2803C21.0575 23.2813 20.154 23.6561 19.4876 24.3225C18.8211 24.9889 18.4463 25.8925 18.4453 26.835C18.4453 26.8978 18.4703 26.9581 18.5147 27.0025C18.5592 27.047 18.6194 27.0719 18.6823 27.0719H25.3177C25.3806 27.0719 25.4408 27.047 25.4853 27.0025C25.5297 26.9581 25.5547 26.8978 25.5547 26.835C25.5537 25.8925 25.1789 24.9889 24.5124 24.3225C23.846 23.6561 22.9425 23.2813 22 23.2803Z" fill="white"/>
<path d="M29.3123 22.8063C30.5557 22.8063 31.5636 21.7984 31.5636 20.555C31.5636 19.3117 30.5557 18.3037 29.3123 18.3037C28.069 18.3037 27.061 19.3117 27.061 20.555C27.061 21.7984 28.069 22.8063 29.3123 22.8063Z" fill="white"/>
<path d="M29.3125 23.2803C28.37 23.2813 27.4665 23.6561 26.8001 24.3225C26.1336 24.9889 25.7588 25.8925 25.7578 26.835C25.7578 26.8978 25.7828 26.9581 25.8272 27.0025C25.8717 27.047 25.9319 27.0719 25.9948 27.0719H32.6302C32.6931 27.0719 32.7533 27.047 32.7978 27.0025C32.8422 26.9581 32.8672 26.8978 32.8672 26.835C32.8662 25.8925 32.4914 24.9889 31.8249 24.3225C31.1585 23.6561 30.255 23.2813 29.3125 23.2803Z" fill="white"/>
</svg>
