<svg width="33" height="33" viewBox="0 0 33 33" fill="none" xmlns="http://www.w3.org/2000/svg">
<circle cx="16.5" cy="16.5" r="15.5" fill="white" stroke="black" stroke-width="2"/>
<path d="M23.5833 11.1754C23.6773 11.1754 23.7673 11.138 23.8338 11.0716C23.9002 11.0052 23.9375 10.9151 23.9375 10.8212V10.467C23.9375 10.0913 23.7882 9.73096 23.5226 9.46529C23.2569 9.19961 22.8966 9.05035 22.5208 9.05035H10.4792C10.1034 9.05035 9.74311 9.19961 9.47743 9.46529C9.21176 9.73096 9.0625 10.0913 9.0625 10.467V10.8212C9.0625 10.9151 9.09981 11.0052 9.16623 11.0716C9.23265 11.138 9.32274 11.1754 9.41667 11.1754H23.5833Z" fill="black"/>
<path d="M9.41667 12.2379C9.32274 12.2379 9.23265 12.2752 9.16623 12.3416C9.09981 12.408 9.0625 12.4981 9.0625 12.592V14.1964C9.06466 16.548 9.68921 18.8572 10.8727 20.8893C12.0562 22.9214 13.7565 24.6041 15.8009 25.7663C16.0144 25.8866 16.2553 25.9498 16.5004 25.9498C16.7454 25.9498 16.9863 25.8866 17.1998 25.7663C19.2439 24.6039 20.944 22.9211 22.1274 20.8891C23.3108 18.857 23.9353 16.5479 23.9375 14.1964V12.592C23.9375 12.4981 23.9002 12.408 23.8338 12.3416C23.7673 12.2752 23.6773 12.2379 23.5833 12.2379H9.41667ZM12.7033 16.1493C12.7252 16.092 12.7641 16.0429 12.8147 16.0084C12.8654 15.974 12.9254 15.9559 12.9867 15.9566H14.9254C14.9944 15.9567 15.0619 15.9366 15.1197 15.8989C15.1774 15.8611 15.2229 15.8073 15.2505 15.7441L16.2259 13.4824C16.249 13.4288 16.2873 13.3831 16.3361 13.351C16.3849 13.319 16.442 13.3019 16.5004 13.3019C16.5587 13.3019 16.6158 13.319 16.6646 13.351C16.7134 13.3831 16.7517 13.4288 16.7748 13.4824L17.7502 15.7441C17.7778 15.8073 17.8233 15.8611 17.881 15.8989C17.9388 15.9366 18.0063 15.9567 18.0753 15.9566H20.0176C20.0782 15.9566 20.1373 15.975 20.1872 16.0093C20.2371 16.0437 20.2754 16.0924 20.297 16.149C20.3186 16.2056 20.3225 16.2675 20.3081 16.3263C20.2938 16.3852 20.2619 16.4383 20.2166 16.4786L18.5797 17.9378C18.5239 17.9874 18.4853 18.0534 18.4693 18.1263C18.4532 18.1992 18.4606 18.2753 18.4904 18.3437L19.4481 20.5459C19.4733 20.6033 19.4798 20.6672 19.4666 20.7285C19.4534 20.7898 19.4212 20.8454 19.3746 20.8874C19.328 20.9293 19.2694 20.9556 19.207 20.9623C19.1447 20.969 19.0818 20.9559 19.0273 20.9249L16.6743 19.5996C16.6212 19.5696 16.5613 19.5539 16.5004 19.5539C16.4394 19.5539 16.3795 19.5696 16.3265 19.5996L13.9734 20.927C13.9188 20.9577 13.856 20.9705 13.7937 20.9636C13.7315 20.9567 13.673 20.9304 13.6265 20.8884C13.58 20.8465 13.5479 20.791 13.5346 20.7298C13.5214 20.6686 13.5277 20.6047 13.5526 20.5473L14.5103 18.3437C14.5401 18.2753 14.5475 18.1992 14.5315 18.1263C14.5154 18.0534 14.4768 17.9874 14.421 17.9378L12.7841 16.4786C12.7388 16.4384 12.7069 16.3853 12.6925 16.3265C12.6781 16.2677 12.6818 16.2059 12.7033 16.1493Z" fill="black"/>
</svg>
