<svg width="18" height="18" viewBox="0 0 18 18" fill="none" xmlns="http://www.w3.org/2000/svg">
<g clip-path="url(#clip0)">
<path d="M16.4655 0.656183C16.4254 0.620955 16.3782 0.594702 16.3271 0.579181C16.276 0.56366 16.2222 0.559228 16.1692 0.566183L11.6198 1.17293C11.4396 1.19692 11.2743 1.2855 11.1546 1.42221C11.0348 1.55892 10.9688 1.73445 10.9688 1.91618V2.20943C10.9686 2.39129 11.0346 2.56701 11.1543 2.70387C11.2741 2.84074 11.4395 2.92943 11.6198 2.95343L16.1692 3.55943C16.2225 3.56652 16.2766 3.5621 16.328 3.54645C16.3794 3.53081 16.4268 3.50432 16.467 3.46876C16.5073 3.4332 16.5394 3.38942 16.5613 3.34037C16.5831 3.29131 16.5942 3.23813 16.5937 3.18443V0.934433C16.5932 0.881638 16.5814 0.829562 16.5593 0.781612C16.5372 0.733663 16.5053 0.69092 16.4655 0.656183Z" fill="#FF5F72"/>
<path d="M10.5937 8.51416H8.90625C8.69914 8.51416 8.53125 8.68205 8.53125 8.88916V14.4377C8.53125 14.6448 8.69914 14.8127 8.90625 14.8127H10.5937C10.8009 14.8127 10.9687 14.6448 10.9687 14.4377V8.88916C10.9687 8.68205 10.8009 8.51416 10.5937 8.51416Z" fill="#FF5F72"/>
<path d="M8.9445 3.85584C8.87754 3.82661 8.82057 3.77846 8.7806 3.71731C8.74063 3.65615 8.71939 3.58465 8.7195 3.51159V3.18759C8.7195 3.08813 8.75901 2.99275 8.82934 2.92242C8.89966 2.8521 8.99504 2.81259 9.0945 2.81259H9.4695C9.56896 2.81259 9.66434 2.77308 9.73466 2.70275C9.80499 2.63243 9.8445 2.53704 9.8445 2.43759V2.06259C9.8445 1.96313 9.80499 1.86775 9.73466 1.79742C9.66434 1.7271 9.56896 1.68759 9.4695 1.68759H6.94125C6.88954 1.68751 6.83842 1.67652 6.79125 1.65534L3.21075 0.064587C3.12073 0.0245995 3.02371 0.00273453 2.92524 0.000240485C2.82677 -0.00225356 2.72877 0.0146722 2.63684 0.0500513C2.45118 0.121503 2.30151 0.263781 2.22075 0.445587C2.13999 0.627393 2.13476 0.833834 2.20622 1.01949C2.27767 1.20516 2.41994 1.35483 2.60175 1.43559L3.675 1.91184C3.70618 1.92558 3.733 1.94759 3.75257 1.97548C3.77213 2.00338 3.78369 2.03609 3.786 2.07009C3.7882 2.10407 3.78121 2.13801 3.76577 2.16837C3.75033 2.19872 3.72701 2.22435 3.69825 2.24259C2.99664 2.68 2.41803 3.28895 2.01702 4.01198C1.61601 4.73502 1.40581 5.54829 1.40625 6.37509V15.5618C1.40625 15.7607 1.48527 15.9515 1.62592 16.0922C1.76657 16.2328 1.95734 16.3118 2.15625 16.3118C2.35516 16.3118 2.54593 16.2328 2.68658 16.0922C2.82723 15.9515 2.90625 15.7607 2.90625 15.5618V6.37509C2.90667 5.51675 3.23412 4.69082 3.82195 4.06537C4.40979 3.43992 5.21384 3.06193 6.0705 3.00834C6.12167 3.00516 6.17294 3.0125 6.22116 3.02992C6.26937 3.04734 6.3135 3.07446 6.35083 3.1096C6.38815 3.14474 6.41787 3.18717 6.43815 3.23425C6.45844 3.28133 6.46885 3.33207 6.46875 3.38334V3.51234C6.46886 3.5854 6.44762 3.6569 6.40765 3.71806C6.36768 3.77921 6.31071 3.82736 6.24375 3.85659C5.64286 4.11738 5.13117 4.5479 4.77145 5.09533C4.41174 5.64276 4.21965 6.2833 4.21875 6.93834V16.8751C4.21875 17.1735 4.33728 17.4596 4.54826 17.6706C4.75923 17.8816 5.04538 18.0001 5.34375 18.0001H9.84375C10.1421 18.0001 10.4283 17.8816 10.6392 17.6706C10.8502 17.4596 10.9688 17.1735 10.9688 16.8751V16.3126C10.9688 16.2131 10.9292 16.1177 10.8589 16.0474C10.7886 15.9771 10.6932 15.9376 10.5938 15.9376H8.34375C8.09523 15.9372 7.85701 15.8383 7.68128 15.6626C7.50555 15.4868 7.40665 15.2486 7.40625 15.0001V8.32509C7.40665 8.07657 7.50555 7.83834 7.68128 7.66261C7.85701 7.48688 8.09523 7.38798 8.34375 7.38759H10.5938C10.6932 7.38759 10.7886 7.34808 10.8589 7.27775C10.9292 7.20743 10.9688 7.11204 10.9688 7.01259V6.93759C10.9679 6.28263 10.7759 5.64216 10.4164 5.09473C10.0568 4.54731 9.54525 4.11674 8.9445 3.85584Z" fill="#FF5F72"/>
</g>
<defs>
<clipPath id="clip0">
<rect width="18" height="18" fill="white"/>
</clipPath>
</defs>
</svg>
