<svg width="24" height="14" viewBox="0 0 24 14" fill="none" xmlns="http://www.w3.org/2000/svg">
<path d="M5.41779 11.4138C5.55765 11.5536 5.73581 11.6488 5.92976 11.6874C6.12372 11.726 6.32475 11.7062 6.50745 11.6305C6.69015 11.5548 6.84631 11.4267 6.9562 11.2623C7.06608 11.0979 7.12475 10.9046 7.12479 10.7068V7.41581C7.12479 7.34951 7.15113 7.28592 7.19802 7.23903C7.2449 7.19215 7.30849 7.16581 7.37479 7.16581H20.9168C20.9831 7.16581 21.0467 7.19215 21.0936 7.23903C21.1405 7.28592 21.1668 7.34951 21.1668 7.41581V12.6238C21.1668 12.9553 21.2985 13.2733 21.5329 13.5077C21.7673 13.7421 22.0853 13.8738 22.4168 13.8738C22.7483 13.8738 23.0663 13.7421 23.3007 13.5077C23.5351 13.2733 23.6668 12.9553 23.6668 12.6238V5.91581C23.6668 5.58429 23.5351 5.26635 23.3007 5.03193C23.0663 4.79751 22.7483 4.66581 22.4168 4.66581H7.37479C7.30849 4.66581 7.2449 4.63947 7.19802 4.59259C7.15113 4.5457 7.12479 4.48211 7.12479 4.41581V1.12381C7.12475 0.92606 7.06608 0.732762 6.9562 0.568352C6.84631 0.403942 6.69015 0.275803 6.50745 0.200133C6.32475 0.124463 6.12372 0.104659 5.92976 0.143227C5.73581 0.181794 5.55765 0.277001 5.41779 0.41681L0.625794 5.20881C0.438323 5.39634 0.333008 5.65065 0.333008 5.91581C0.333008 6.18097 0.438323 6.43528 0.625794 6.62281L5.41779 11.4138Z" fill="#637386"/>
</svg>
