<svg width="24" height="24" viewBox="0 0 24 24" fill="none" xmlns="http://www.w3.org/2000/svg">
<path d="M23.3841 21.6191L16.8551 15.0901C18.2802 13.2167 18.9406 10.8719 18.7025 8.53019C18.4645 6.18844 17.3459 4.02453 15.5729 2.47624C13.8 0.927952 11.5052 0.110889 9.1527 0.190356C6.80022 0.269822 4.56575 1.23988 2.90135 2.90428C1.23695 4.56868 0.266893 6.80315 0.187426 9.15563C0.10796 11.5081 0.925022 13.8029 2.47331 15.5759C4.0216 17.3488 6.18551 18.4674 8.52726 18.7055C10.869 18.9435 13.2138 18.2832 15.0871 16.8581L21.6161 23.3871C21.8526 23.6177 22.1698 23.7468 22.5001 23.7468C22.8304 23.7468 23.1477 23.6177 23.3841 23.3871C23.6184 23.1525 23.7499 22.8345 23.7499 22.5031C23.7499 22.1716 23.6184 21.8536 23.3841 21.6191ZM2.75012 9.50005C2.75012 8.16503 3.146 6.85998 3.8877 5.74995C4.6294 4.63992 5.68361 3.77476 6.91701 3.26386C8.15041 2.75297 9.50761 2.6193 10.817 2.87975C12.1264 3.1402 13.3291 3.78308 14.2731 4.72708C15.2171 5.67109 15.86 6.87382 16.1204 8.18319C16.3809 9.49256 16.2472 10.8498 15.7363 12.0832C15.2254 13.3166 14.3603 14.3708 13.2502 15.1125C12.1402 15.8542 10.8351 16.2501 9.50012 16.2501C7.71056 16.2479 5.9949 15.5361 4.72949 14.2707C3.46408 13.0053 2.75224 11.2896 2.75012 9.50005Z" fill="#3A506B"/>
</svg>
